<mxfile host="Electron" agent="Mozilla/5.0 (Windows NT 10.0; Win64; x64) AppleWebKit/537.36 (KHTML, like Gecko) draw.io/24.5.3 Chrome/124.0.6367.207 Electron/30.0.6 Safari/537.36" modified="2025-02-16T04:10:06.030Z" version="24.5.3" etag="9_G7ltVWwZby1RJ4MWIj" type="device">
  <diagram name="Página-1" id="8fNpdeioyVkVSYhBQ-v-">
    <mxGraphModel dx="1028" dy="656" grid="1" gridSize="10" guides="1" tooltips="1" connect="1" arrows="1" fold="1" page="1" pageScale="1" pageWidth="827" pageHeight="1169" math="0" shadow="0">
      <root>
        <mxCell id="0" />
        <mxCell id="1" parent="0" />
        <mxCell id="h2eLJSJWBufKnYOWfHpg-6" style="edgeStyle=orthogonalEdgeStyle;rounded=0;orthogonalLoop=1;jettySize=auto;html=1;flowAnimation=1;" parent="1" source="h2eLJSJWBufKnYOWfHpg-1" target="h2eLJSJWBufKnYOWfHpg-5" edge="1">
          <mxGeometry relative="1" as="geometry" />
        </mxCell>
        <mxCell id="h2eLJSJWBufKnYOWfHpg-7" value="request" style="edgeLabel;html=1;align=center;verticalAlign=middle;resizable=0;points=[];" parent="h2eLJSJWBufKnYOWfHpg-6" vertex="1" connectable="0">
          <mxGeometry x="-0.3375" relative="1" as="geometry">
            <mxPoint as="offset" />
          </mxGeometry>
        </mxCell>
        <mxCell id="h2eLJSJWBufKnYOWfHpg-1" value="Amazon API Gateway" style="sketch=0;outlineConnect=0;fontColor=#232F3E;gradientColor=none;strokeColor=#ffffff;fillColor=#232F3E;dashed=0;verticalLabelPosition=middle;verticalAlign=bottom;align=center;html=1;whiteSpace=wrap;fontSize=10;fontStyle=1;spacing=3;shape=mxgraph.aws4.productIcon;prIcon=mxgraph.aws4.api_gateway;" parent="1" vertex="1">
          <mxGeometry x="220" y="190" width="80" height="110" as="geometry" />
        </mxCell>
        <mxCell id="h2eLJSJWBufKnYOWfHpg-3" style="edgeStyle=orthogonalEdgeStyle;rounded=0;orthogonalLoop=1;jettySize=auto;html=1;flowAnimation=1;" parent="1" source="h2eLJSJWBufKnYOWfHpg-2" target="h2eLJSJWBufKnYOWfHpg-1" edge="1">
          <mxGeometry relative="1" as="geometry">
            <Array as="points">
              <mxPoint x="85" y="240" />
            </Array>
          </mxGeometry>
        </mxCell>
        <mxCell id="h2eLJSJWBufKnYOWfHpg-4" value="requisição HTTP" style="edgeLabel;html=1;align=center;verticalAlign=middle;resizable=0;points=[];" parent="h2eLJSJWBufKnYOWfHpg-3" vertex="1" connectable="0">
          <mxGeometry x="0.3841" y="-2" relative="1" as="geometry">
            <mxPoint as="offset" />
          </mxGeometry>
        </mxCell>
        <mxCell id="h2eLJSJWBufKnYOWfHpg-2" value="USER" style="html=1;verticalLabelPosition=bottom;align=center;labelBackgroundColor=#ffffff;verticalAlign=top;strokeWidth=2;strokeColor=#0080F0;shadow=0;dashed=0;shape=mxgraph.ios7.icons.user;" parent="1" vertex="1">
          <mxGeometry x="70" y="410" width="30" height="30" as="geometry" />
        </mxCell>
        <mxCell id="h2eLJSJWBufKnYOWfHpg-8" style="edgeStyle=orthogonalEdgeStyle;rounded=0;orthogonalLoop=1;jettySize=auto;html=1;flowAnimation=1;" parent="1" edge="1">
          <mxGeometry relative="1" as="geometry">
            <mxPoint x="460" y="219" as="sourcePoint" />
            <mxPoint x="300" y="219" as="targetPoint" />
          </mxGeometry>
        </mxCell>
        <mxCell id="h2eLJSJWBufKnYOWfHpg-9" value="response" style="edgeLabel;html=1;align=center;verticalAlign=middle;resizable=0;points=[];" parent="h2eLJSJWBufKnYOWfHpg-8" vertex="1" connectable="0">
          <mxGeometry x="-0.2" y="3" relative="1" as="geometry">
            <mxPoint as="offset" />
          </mxGeometry>
        </mxCell>
        <mxCell id="h2eLJSJWBufKnYOWfHpg-5" value="Produtor" style="sketch=0;points=[[0,0,0],[0.25,0,0],[0.5,0,0],[0.75,0,0],[1,0,0],[0,1,0],[0.25,1,0],[0.5,1,0],[0.75,1,0],[1,1,0],[0,0.25,0],[0,0.5,0],[0,0.75,0],[1,0.25,0],[1,0.5,0],[1,0.75,0]];outlineConnect=0;fontColor=#232F3E;fillColor=#ED7100;strokeColor=#ffffff;dashed=0;verticalLabelPosition=bottom;verticalAlign=top;align=center;html=1;fontSize=12;fontStyle=0;aspect=fixed;shape=mxgraph.aws4.resourceIcon;resIcon=mxgraph.aws4.lambda;" parent="1" vertex="1">
          <mxGeometry x="460" y="206" width="78" height="78" as="geometry" />
        </mxCell>
        <mxCell id="h2eLJSJWBufKnYOWfHpg-10" value="Python&lt;br&gt;Recebe requisição&lt;br&gt;do API Gateway" style="text;strokeColor=none;align=center;fillColor=none;html=1;verticalAlign=middle;whiteSpace=wrap;rounded=0;" parent="1" vertex="1">
          <mxGeometry x="434" y="160" width="130" height="30" as="geometry" />
        </mxCell>
        <mxCell id="h2eLJSJWBufKnYOWfHpg-12" style="edgeStyle=orthogonalEdgeStyle;rounded=0;orthogonalLoop=1;jettySize=auto;html=1;flowAnimation=1;" parent="1" edge="1">
          <mxGeometry relative="1" as="geometry">
            <mxPoint x="538" y="245" as="sourcePoint" />
            <mxPoint x="698" y="245" as="targetPoint" />
          </mxGeometry>
        </mxCell>
        <mxCell id="h2eLJSJWBufKnYOWfHpg-13" value="put queue" style="edgeLabel;html=1;align=center;verticalAlign=middle;resizable=0;points=[];" parent="h2eLJSJWBufKnYOWfHpg-12" vertex="1" connectable="0">
          <mxGeometry x="-0.3375" relative="1" as="geometry">
            <mxPoint as="offset" />
          </mxGeometry>
        </mxCell>
        <mxCell id="h2eLJSJWBufKnYOWfHpg-17" value="Python&lt;br&gt;Recebe requisição&lt;br&gt;do SQS" style="text;strokeColor=none;align=center;fillColor=none;html=1;verticalAlign=middle;whiteSpace=wrap;rounded=0;" parent="1" vertex="1">
          <mxGeometry x="550" y="434" width="130" height="30" as="geometry" />
        </mxCell>
        <mxCell id="h2eLJSJWBufKnYOWfHpg-23" style="edgeStyle=orthogonalEdgeStyle;rounded=0;orthogonalLoop=1;jettySize=auto;html=1;flowAnimation=1;" parent="1" source="h2eLJSJWBufKnYOWfHpg-19" target="h2eLJSJWBufKnYOWfHpg-22" edge="1">
          <mxGeometry relative="1" as="geometry" />
        </mxCell>
        <mxCell id="h2eLJSJWBufKnYOWfHpg-19" value="Consumidor&lt;div&gt;&lt;br&gt;&lt;/div&gt;" style="sketch=0;points=[[0,0,0],[0.25,0,0],[0.5,0,0],[0.75,0,0],[1,0,0],[0,1,0],[0.25,1,0],[0.5,1,0],[0.75,1,0],[1,1,0],[0,0.25,0],[0,0.5,0],[0,0.75,0],[1,0.25,0],[1,0.5,0],[1,0.75,0]];outlineConnect=0;fontColor=#232F3E;fillColor=#ED7100;strokeColor=#ffffff;dashed=0;verticalLabelPosition=bottom;verticalAlign=top;align=center;html=1;fontSize=12;fontStyle=0;aspect=fixed;shape=mxgraph.aws4.resourceIcon;resIcon=mxgraph.aws4.lambda;" parent="1" vertex="1">
          <mxGeometry x="697" y="410" width="78" height="78" as="geometry" />
        </mxCell>
        <mxCell id="h2eLJSJWBufKnYOWfHpg-20" value="Amazon SQS" style="sketch=0;outlineConnect=0;fontColor=#232F3E;gradientColor=none;strokeColor=#ffffff;fillColor=#232F3E;dashed=0;verticalLabelPosition=middle;verticalAlign=bottom;align=center;html=1;whiteSpace=wrap;fontSize=10;fontStyle=1;spacing=3;shape=mxgraph.aws4.productIcon;prIcon=mxgraph.aws4.sqs;" parent="1" vertex="1">
          <mxGeometry x="696" y="206" width="80" height="100" as="geometry" />
        </mxCell>
        <mxCell id="h2eLJSJWBufKnYOWfHpg-21" style="edgeStyle=orthogonalEdgeStyle;rounded=0;orthogonalLoop=1;jettySize=auto;html=1;entryX=0.5;entryY=0;entryDx=0;entryDy=0;entryPerimeter=0;flowAnimation=1;" parent="1" source="h2eLJSJWBufKnYOWfHpg-20" target="h2eLJSJWBufKnYOWfHpg-19" edge="1">
          <mxGeometry relative="1" as="geometry" />
        </mxCell>
        <mxCell id="h2eLJSJWBufKnYOWfHpg-22" value="Amazon DynamoDB" style="sketch=0;outlineConnect=0;fontColor=#232F3E;gradientColor=none;strokeColor=#ffffff;fillColor=#232F3E;dashed=0;verticalLabelPosition=middle;verticalAlign=bottom;align=center;html=1;whiteSpace=wrap;fontSize=10;fontStyle=1;spacing=3;shape=mxgraph.aws4.productIcon;prIcon=mxgraph.aws4.dynamodb;" parent="1" vertex="1">
          <mxGeometry x="697" y="580" width="80" height="110" as="geometry" />
        </mxCell>
        <mxCell id="h2eLJSJWBufKnYOWfHpg-24" value="" style="html=1;verticalLabelPosition=bottom;align=center;labelBackgroundColor=#ffffff;verticalAlign=top;strokeWidth=2;strokeColor=#0080F0;shadow=0;dashed=0;shape=mxgraph.ios7.icons.smartphone;" parent="1" vertex="1">
          <mxGeometry x="100" y="380" width="18" height="30" as="geometry" />
        </mxCell>
        <mxCell id="DrunmsC-3sItK-7ELslB-2" value="" style="rounded=1;arcSize=10;dashed=1;fillColor=none;gradientColor=none;dashPattern=8 3 1 3;strokeWidth=2;" vertex="1" parent="1">
          <mxGeometry x="50" y="146" width="769.5" height="554" as="geometry" />
        </mxCell>
        <mxCell id="DrunmsC-3sItK-7ELslB-3" value="" style="shape=image;verticalLabelPosition=bottom;verticalAlign=top;imageAspect=0;aspect=fixed;image=data:image/png,iVBORw0KGgoAAAANSUhEUgAAAHAAAACACAYAAADTcu1SAAAAAXNSR0IArs4c6QAADitJREFUeAHtnX1UlFUex5/7PDOAoiWnRGbo5G6FL7XV4lqnrFZAT6booOxOLyuD7FZmdbT3jlu5S55t/SM37XjWNirFGWpLVmEGNLUEcteOWcZmbyrlZh1mSDCtFAVmnrvfB7nwMIHAvD3PzNw5B+597jNz7+9+P3Nfnvs2gi3PveUPlubxAn9FpQIipXRWB+n4uGCu+28Lrd+dH5W5iGOjRSXvgGgUZPrw6bYzDTaL++7iYtoZHse6RE3We4GiAh2Nv5Iv6t37bPM8U6MmF3FsaC+A3TpQ4ZfUJ9ehNG68M989tjuce3SnQN8Au8xEabS2e+mBAot7uc3WlKw767lBwjkBKvpQQUjC/2XC976DADkf7SXhuulHAVJgaQSjIb32GAziktLNpveH9Cn+5rAoMGAJ7CPV67xe+h5KY+nC/GZTH/d5UAQVCAQgzFOqUbqg1ddxqDDPvXTxYpoYQZt5UioFAgTYFQOlI2RKVxw/4vkMIOep4uXeCCkQSBvYr2koljUSkR4sdaZ93O+b+I2QKhBcCfQzBb2hHK8g1xfkNf69cN4PF/jd5pdhUCCkADvto1TCs8d9su/HBgyUL8GwnCEMdvMouxQIPcAeaVPwzPj8l/We/QA5oyeY+0KpQDgBdtoJiBPxt81maawq+s3RjFAaz+MSBh6JCZVIaB9ne70dnxTmNT67eP6x80IVb7zHE/YS2EtgKiTIVHj0xMm2Bjx23MWnrXqpE9BFZAF2mYgqNRXPjy99We/+oCjPfVNAlvMPdSqgCUCmPaVCppfSXba8xtcLre6LWTh3B6+ALrr4AHmb0C6kwuycwZvO36kooGkJVCNAJ4dPU6kFGaRfNwD97cVqgMlYLWf2D+fXZxVAP4Lk5FTN0S1AFMcbOoTO2Y4nioooJpX5iymQk1M9JTu7ai+anjW6BagYiyUdyeitPuM77vncNs+dzzIQr+7MmVsvArgyWZZ3Q4PJig666MQMBATVxc8En7CpIM9dJ4jSg2UVYz4a6DOxdN9qfXdYS8t3j54541sKLYar86brEqg2tNNPaZYg+/ZhbPWFhXe4L/zJ/RgMQHVpbWk5doBSebk/PCW70QVQsRizHcjIotOttKHQ4n5g4UIsSo7B1/TpWzOzsqp2obrciPz2+4wcfQC7YKEBHyULdPXpJs/+wrmembHC8Oabt6einSvx+bwf4Ns64ChVVLSB54KDjs4EKtOtaB+3JFDjI+tcow+e6/16vWe1fprQ3Py/xR0d7X9CiRv0YH/UlsCfgKA0N1o36WRnV+c2Nx/+RBDklUOBp2gQOwCRGWQ+qjbpTJ9ePRHV5XZ0UKphfUBzpTEFkJVKVKu63qSTm1udglGU1Vhfux9fupuZ3YG4MQmwWwidbdKxWqmEx4J7W1vlBlmmD6DUBd0HiW2AXST1sEknJ2drTnNzdT0eC9aiBx2yFXtxAVDhiNkOTTbpoJ27BM9zm2XZuxNWXNldO4TIEzcAmV4AmQ4hywrnuncX5XuuYeGhdq3W2hEAt8Lno58hvbCtWo87gAwUqrHrw7FJB50SkpVVvaC5+eQhgFPGLsO6byRuAZ4FGdpNOtOmVV2PZ7r38DxXCngR2bkV5wC7ymOQm3TwSJCuTPP4fAKmeWjYqmVWe6hdkQjkXqxmaFEHxq+fXoL5x81YhLyzKK9pwA5HUVFtEkrcMlTHh1BVzge8iC8LER0u8z8M4rAMQSTPA6Q3fuH15BwdnQE36SjTPEeOnOx3mqcntvD6OqvQ0sqUE2WV5geJJFxFCNke3iSjJHbVJp3f57snqa1G79LVNc0zVh2uhb9XG+ioMH/ucJpvESVpDoxp0MIgHaaZ0iELvebjCBGu1oudvQAyo+wVadXD08xXCER8DNXqDyycu/pToE+AipklJaSjzGlaSSQxAx2dV1C1yvozn1vUL0AmjaMi7Sg6OncRapgsEPJvFs5dfSgwIEBmpt2VWl/mNP9aJNLtKJFfs3DuaqvAoAEyM+3OtDcuTDRNwFxwMUC2snDuaqPAkAEqZq4qJ6fLXKanDSRxAnpkr2tjOk9VUSAggEy69c4LvnE40++QDMKN6OTsY+HcjZwCQQFkZm7YnL770kzTtaIg3YnHjm9ZOHfDr0BIACpmFhcT2e5KW5cyMnEcNoo9i7/28JvPUwgZQCblmlcv+KHMmf64kGC8Au1jFQvnbngUCDlAZmZZeeoXaB8tkkhm4PkRs9L8FQ4FwgaQGbuh0rzjskzT1aIoLEHYcRbO3dAoEHaAiploH732yvQ1ojQyA23jWpRIX2jM57FEBCCT2V5x3jG0j/cbBDFTOdmQhXM3cAUiCpCZqRxH6XClTxMJwa5bcpiFc3foCmgCkJlpd5orUsaaLicieYII9EcWzt3BKxD00u7BJ9X3O9esIW24s4IfZNC3PgOFaloC1caVlpIz6mvuH5wCugHoby7Wdx3AbMcp/3B+3aMAVsN9qFuAWJuz3SgYx6GTU4Y/LBTjL6YAJg4OiyLJr6ubk69bgIqx2C7tLnOZbfihkSkwei/LQBy7J6HDE0lJ0uU1NXMqFB0078QMBkbp5rQ9WDh73YL8pkLsq1uBrbgRWbY+GNsi8x5CMa7sSEgwLt2+/RaPOk3dAlQ2ieDVXXV2+TfcZz266cd275OA+BBuhnXjiFooDf17MAz5AEpcnzWQbqvQwjzPPTjQZwUOvBupFm9teepJtI9/NBoNl2NIrrMaUd+PFT++sI2SJNpqa+dM6Q+eklfdAsRQWyJK4VLlwDvbXE+RUiLVcNZtGnMYi6zyiSRNA8iP1fei20/OiKL4jNGYMH7nztll6lqor3zpFiAzFtuj06gsr8dhPnsL8r6dwsKZi2WPNZYEU6ZIxPvRThxj4dHpkn8lJRkm1tTMfmrHjhmDeoTSPUAGAiVwskC9u1Gtlt2Vf+wiFq64t5YTn91pWjsiOTmDEHENHjuiapMOStlH+PJl4bHAum3bzK/UeRvIHzUAWUYAcn6bt+0gSuSyh6x0GAtX3BdeG3Xc4TQtMRJyNarVHep7+vSTZti1aOrU2ZNqay3vBGJj1AFUMolqdTh2By1vafMcsFk8Vv+Mr3eaPkP7OIMQyYKG8wv/+9pfkw7UFKtGjRoxrq7O8qKynihQm6ISIMssQF5MBXkjzknbVWg5msnCmetwplVdmmi+QhTEx1Gt6mSTDnmTEMOVtbWzH66szD7BbA3UjWqA3Zmm9CZKvB+gfSyxzWtK7Q6Hp7ictNtdpmeTkqVxRBTWob0J+NuujneofrRxB5F2Ltq5WbW1Mw8O9fP9vT82ACJ3aBtF/N2Nn09vwGPHI/7niL78zzHfOirT78Se8mtRGpUjiyPyArTvAe/hjAwzSt2craFONGYA9ghDz8Njx8rWJvenCyye3J7wsz4sstqH8dUbiSDdAWG/8b8fqmvELeOvBOOWGeigrCopmdwRqrjV8cQgwO7sZfgEuRrV6jYcmD6xO7TL43ClvT5sDJmAYaqnsdDqtP/9YK5R6t4xGKRfAdw9b745S+lphu0VywA7RUO1OoP6hP0Fc92r7/3diRS1kiUl5laslisWE4iySecN9b1A/AB3BKMot6KqzHrrrdz/BhLHUD8T8wDPCoJTAXE64MlTpxrwgyKLNuLUQLVQ9nLz11iEfLsoERxxTD5U3xuMH+BOYX5u2dixIyZgFKV8MJ8J1XviBOBZuZRTAvHo8YKr3VNfaPFk+4torzD/57JJpmuwWu5uQDnqf/+n18o0D3kVpXc8Bpz/UlqaHfFlIXEFsBsApVfKglyD0rjJZm36eXc4PJ2bdJzml0eNSMxAj3Vl/5t0yPuSJNyA6rIA8BrVcUTSr9v5wEiIgNKYT9p8uQD53MhEw1+VqSqWrrJJB/7H8LOxJYLg7VXlop27/+23Z21B6euer2Sfi7SLkSZ9vpTfhFB+ViBi1hGCmW6y1FGZ5tADmMHmOz6r0L7UUZZpUHkDBsn3FOU3XdfXW/QYxgH6UcFjx7Ver/xugcXtKLS2pPvd1t0lB9gnks5zRAtoW/tBDAQ8qedV4xxgnwDPBqKTk4wS+RfvCc8t53ibprc4QE3lDz5xDjB4DTWNgQPUVP7gE+cAg9dQ0xg4QE3lDz5xDjB4DTWNgQPUVP7gE+cAg9dQ0xg4QE3lDz5xDjB4DTWNgQPUVP7gE+cAg9dQ0xg4QE3lDz5xDjB4DTWNgQPUVP7gE+cAg9dQ0xg4QE3lDz5xDjB4DTWNgQPUVP7gE9ctQGNisoMfzzwwYN0CfKX8/O/48cxRDJCZzo9nZkr07eq2BPqbqz6eGUeIdO9h8H9fvF1HDUAFjHI8s6PSvGK4ZByH/Qt27GXQfHOJ1l+YqALIxCrZPNqDA+8WYFOlsodhDwuPRzcqATJQ9krTXoCcApA2bLPSbI8es0cLN6oBKoIpW8HsleYy4XxpPPzPAGTEd8lqAY6lGfUAWUYcjrRTKI1PSaI4ESA3sfBYd2MGIANVWmn6CiB/axDFbJTGj1h4rLoxB5CBAsi6SyeZJ+HAgkWoaFtYeKy5MQtQAdV1YMGLBnFYBn6DYjWq1rCclqTllyKmATJhSytTTjhc5ofwY81XAeQ2Fh4LblwAZKBKN5kPAORMSRBn42yXQyw8mt24AshAbXCZtgwbY/6FKJBH8BzyPQuPRjcuASqgSkpIh91lfs6YQHDONnkJf5qcIxrslyZuATLh1pebmvHYsZBQw2SUxl0sPFrcuAfIQNldqfU4Z3sqBgJuA8gjLFzvLgfoR2hDpWnj6AQTRnPEP6PH2up3W3eXHGAfSFaVk9P4+YLliYZEZXz1NZHgnEP+il4F/M8X1VNO/g8k+slcMVd8QwAAAABJRU5ErkJggg==" vertex="1" parent="1">
          <mxGeometry x="90" y="109.99999999999999" width="62" height="70.86" as="geometry" />
        </mxCell>
        <mxCell id="DrunmsC-3sItK-7ELslB-4" value="POST" style="text;strokeColor=none;align=center;fillColor=none;html=1;verticalAlign=middle;whiteSpace=wrap;rounded=0;" vertex="1" parent="1">
          <mxGeometry x="140" y="254" width="60" height="30" as="geometry" />
        </mxCell>
        <mxCell id="DrunmsC-3sItK-7ELslB-5" value="&lt;ul style=&quot;margin: 10px 0px 20px; padding: 0px 0px 0px 24px; font-size: var(--m3t7); line-height: var(--m3t8); color: rgb(0, 29, 53); font-family: &amp;quot;Google Sans&amp;quot;, Arial, sans-serif; text-align: start; background-color: rgb(255, 255, 255);&quot; data-ved=&quot;2ahUKEwjoifieqMeLAxWyPbkGHdZ6B20Qm_YKegQIFxAB&quot; data-hveid=&quot;CBcQAQ&quot;&gt;&lt;li style=&quot;margin: 0px 0px 8px; padding: 0px 0px 0px 4px; list-style: inherit;&quot;&gt;&lt;span data-huuid=&quot;16389641033377844445&quot;&gt;&lt;strong&gt;GET&lt;/strong&gt;:&amp;nbsp;&lt;/span&gt;&lt;span data-huuid=&quot;16389641033377844176&quot;&gt;Recupera informações, como uma lista de usuários&lt;/span&gt;&lt;/li&gt;&lt;li style=&quot;margin: 0px 0px 8px; padding: 0px 0px 0px 4px; list-style: inherit;&quot;&gt;&lt;span data-huuid=&quot;16389641033377843638&quot;&gt;&lt;strong&gt;POST&lt;/strong&gt;:&amp;nbsp;&lt;/span&gt;&lt;span data-huuid=&quot;16389641033377843369&quot;&gt;Envia dados para processamento, como adicionar um novo usuário&lt;/span&gt;&lt;/li&gt;&lt;li style=&quot;margin: 0px 0px 8px; padding: 0px 0px 0px 4px; list-style: inherit;&quot;&gt;&lt;span data-huuid=&quot;16389641033377842831&quot;&gt;&lt;strong&gt;PUT&lt;/strong&gt;:&amp;nbsp;&lt;/span&gt;&lt;span data-huuid=&quot;16389641033377842562&quot;&gt;Atualiza dados existentes, como atualizar os detalhes do usuário com ID 1&lt;/span&gt;&lt;/li&gt;&lt;li style=&quot;margin: 0px 0px 8px; padding: 0px 0px 0px 4px; list-style: inherit;&quot;&gt;&lt;span data-huuid=&quot;16389641033377842024&quot;&gt;&lt;strong&gt;DELETE&lt;/strong&gt;:&amp;nbsp;&lt;/span&gt;&lt;span data-huuid=&quot;16389641033377841755&quot;&gt;Remove dados, como deletar o usuário com ID 1&lt;/span&gt;&lt;/li&gt;&lt;li style=&quot;margin: 0px; padding: 0px 0px 0px 4px; list-style: inherit;&quot;&gt;&lt;span data-huuid=&quot;16389641033377841217&quot;&gt;&lt;strong&gt;HEAD&lt;/strong&gt;:&amp;nbsp;&lt;/span&gt;&lt;span data-huuid=&quot;16389641033377845044&quot;&gt;Busca apenas o header de um recurso&lt;/span&gt;&lt;/li&gt;&lt;/ul&gt;" style="text;align=center;html=1;verticalAlign=middle;whiteSpace=wrap;rounded=0;fillColor=none;strokeColor=default;" vertex="1" parent="1">
          <mxGeometry x="110" y="530" width="470" height="118" as="geometry" />
        </mxCell>
      </root>
    </mxGraphModel>
  </diagram>
</mxfile>
